# Blender v2.93.0 OBJ File: 'Platform.blend'
# www.blender.org
mtllib Platform.mtl
o Cube
v 1.000000 0.305494 -1.889885
v 1.000000 0.305494 1.889886
v -1.000000 0.305494 -1.889885
v -1.000000 0.305494 1.889886
v 0.803869 -0.130507 -1.572685
v 0.635117 -0.200406 -1.525002
v 0.682800 -0.130507 -1.693755
v 0.930100 -0.004276 -1.698916
v 0.809031 -0.004276 -1.819986
v 1.000000 0.164477 -1.889885
v 0.635117 -0.200406 1.525003
v 0.803869 -0.130507 1.572686
v 0.682800 -0.130507 1.693755
v 0.930100 -0.004276 1.698917
v 1.000000 0.164477 1.889886
v 0.809031 -0.004276 1.819986
v -0.809031 -0.004276 -1.819986
v -0.930101 -0.004276 -1.698916
v -1.000000 0.164477 -1.889885
v -0.682800 -0.130507 -1.693755
v -0.635117 -0.200406 -1.525002
v -0.803870 -0.130507 -1.572685
v -0.635117 -0.200406 1.525003
v -0.682800 -0.130507 1.693755
v -0.803870 -0.130507 1.572686
v -0.809031 -0.004276 1.819986
v -1.000000 0.164477 1.889886
v -0.930101 -0.004276 1.698917
vt 0.625000 0.500000
vt 0.875000 0.500000
vt 0.875000 0.750000
vt 0.625000 0.750000
vt 0.149516 0.520980
vt 0.149516 0.729020
vt 0.133737 0.737369
vt 0.133737 0.512631
vt 0.555314 0.250000
vt 0.625000 0.250000
vt 0.555313 0.500000
vt 0.164650 0.737028
vt 0.335350 0.737028
vt 0.351129 0.745377
vt 0.148871 0.745377
vt 0.555314 0.000000
vt 0.625000 0.000000
vt 0.170610 0.524134
vt 0.329390 0.524134
vt 0.329390 0.725866
vt 0.170610 0.725866
vt 0.555314 0.750000
vt 0.625000 1.000000
vt 0.555313 1.000000
vt 0.335350 0.512972
vt 0.164650 0.512972
vt 0.148871 0.504623
vt 0.351129 0.504623
vt 0.350484 0.520980
vt 0.341746 0.524134
vt 0.335350 0.517596
vt 0.366263 0.508627
vt 0.351129 0.500000
vt 0.375000 0.500000
vt 0.341746 0.729020
vt 0.335350 0.732404
vt 0.463184 0.737369
vt 0.506464 0.750000
vt 0.438197 0.742707
vt 0.141304 0.504623
vt 0.125000 0.512631
vt 0.125000 0.500000
vt 0.141304 0.745377
vt 0.125000 0.750000
vt 0.125000 0.737369
vt 0.361218 0.507293
vt 0.345439 0.515642
vt 0.345439 0.734358
vt 0.361218 0.742707
vt 0.375000 0.750000
vt 0.385026 0.520980
vt 0.385026 0.729020
vt 0.463184 0.512631
vn 0.0000 1.0000 0.0000
vn -0.7071 -0.7071 0.0000
vn 0.0000 0.0000 -1.0000
vn 0.0000 -0.7071 0.7071
vn -1.0000 0.0000 0.0000
vn 0.0000 -1.0000 0.0000
vn 0.0000 0.0000 1.0000
vn 0.0000 -0.7071 -0.7071
vn 1.0000 0.0000 0.0000
vn 0.2938 -0.9096 -0.2938
vn 0.4773 -0.7378 -0.4773
vn 0.2938 -0.9096 0.2938
vn 0.4773 -0.7378 0.4773
vn -0.4773 -0.7378 -0.4773
vn -0.2938 -0.9096 -0.2938
vn -0.2938 -0.9096 0.2938
vn -0.4773 -0.7378 0.4773
vn -0.4082 -0.8165 -0.4082
vn -0.3827 -0.9239 0.0000
vn -0.4082 -0.8165 0.4082
vn -0.9239 -0.3827 0.0000
vn 0.4082 -0.8165 -0.4082
vn -0.0000 -0.9239 -0.3827
vn 0.0000 -0.3827 -0.9239
vn 0.0000 -0.9239 0.3827
vn 0.4082 -0.8165 0.4082
vn 0.0000 -0.3827 0.9239
vn 0.3827 -0.9239 0.0000
vn 0.9239 -0.3827 0.0000
vn 0.7071 -0.7071 0.0000
usemtl texture
s off
f 1/1/1 3/2/1 4/3/1 2/4/1
f 22/5/2 25/6/2 28/7/2 18/8/2
f 19/9/3 3/10/3 1/1/3 10/11/3
f 24/12/4 13/13/4 16/14/4 26/15/4
f 27/16/5 4/17/5 3/10/5 19/9/5
f 21/18/6 6/19/6 11/20/6 23/21/6
f 15/22/7 2/4/7 4/23/7 27/24/7
f 7/25/8 20/26/8 17/27/8 9/28/8
f 10/11/9 1/1/9 2/4/9 15/22/9
f 5/29/10 6/30/10 7/31/10
f 8/32/11 9/33/11 10/34/11
f 11/20/12 12/35/12 13/36/12
f 14/37/13 15/38/13 16/39/13
f 17/40/14 18/41/14 19/42/14
f 20/26/15 21/18/15 22/5/15
f 23/21/16 24/12/16 25/6/16
f 26/43/17 27/44/17 28/45/17
f 17/27/18 20/26/18 22/5/18 18/8/18
f 21/18/19 23/21/19 25/6/19 22/5/19
f 24/12/20 26/15/20 28/7/20 25/6/20
f 27/44/21 19/42/21 18/8/21 28/7/21
f 8/46/22 5/47/22 7/25/22 9/28/22
f 6/19/23 21/18/23 20/26/23 7/25/23
f 19/42/24 10/34/24 9/28/24 17/27/24
f 23/21/25 11/20/25 13/13/25 24/12/25
f 12/48/26 14/49/26 16/14/26 13/13/26
f 15/50/27 27/44/27 26/15/27 16/14/27
f 11/20/28 6/19/28 5/51/28 12/52/28
f 10/11/29 15/22/29 14/37/29 8/53/29
f 12/52/30 5/51/30 8/53/30 14/37/30
